<svg width="119" height="78" viewBox="0 0 119 78" fill="none" xmlns="http://www.w3.org/2000/svg">
<g clip-path="url(#clip0_423_2050)">
<path d="M66.7661 65.6224V57.1979H68.4785V60.6197H68.7165L70.0136 57.1979H71.7159L70.1505 61.1606L71.8004 65.6224H70.0469L68.7183 61.8577H68.4803V65.6224H66.7661ZM73.1546 65.6224L74.7837 57.1979H76.683L78.302 65.6224H76.7139L76.4164 63.7737H75.0878L74.7659 65.6224H73.1546ZM75.2407 62.7206H76.2468L75.7387 59.3214L75.2407 62.7206ZM80.1917 65.6224V57.1979H85.1302V65.6224H83.4487V58.4251H81.872V65.6224H80.1917ZM87.4507 65.6224V57.1979H88.8192V62.2423L91.0391 57.1979H92.1655V65.6224H90.7744V60.4939L88.5336 65.6224H87.4507ZM95.2755 65.6224V58.477H93.9784V57.1979H98.2743V58.477H96.9981V65.6224H95.2755ZM99.6601 65.6224L101.289 57.1979H103.188L104.807 65.6224H103.221L102.923 63.7737H101.595L101.273 65.6224H99.6601ZM101.743 62.7206H102.756L102.248 59.3214L101.743 62.7206ZM106.122 65.6224V64.4053C106.3 64.4082 106.477 64.3942 106.652 64.3635C106.789 64.3342 106.91 64.2568 106.995 64.1453C107.102 63.9847 107.176 63.8043 107.212 63.6145C107.279 63.2954 107.323 62.9723 107.347 62.6473C107.389 62.2453 107.43 61.7356 107.471 61.1182L107.752 57.1973H112.036V65.6218H110.334V58.5086H109.287L109.108 61.3896C109.068 62.0551 109.02 62.6339 108.962 63.1261C108.928 63.5427 108.848 63.9542 108.724 64.3534C108.639 64.6558 108.478 64.9314 108.257 65.1543C108.056 65.3487 107.783 65.4839 107.437 65.5598C107.097 65.6298 106.66 65.6506 106.127 65.6224H106.122Z" fill="black"/>
<path d="M40.9401 42.1539V27.7993H38.2632V44.7611H42.6228L49.6831 30.4065V44.7611H52.3606V27.7993H48.0004L40.9401 42.1539Z" fill="black"/>
<path d="M58.5307 40.6464C58.5307 41.3739 58.3784 41.8444 58.0518 42.1247C57.7138 42.4145 57.1509 42.5499 56.2787 42.5499H55.5873V45.2334H56.2787C57.8322 45.2334 59.0508 44.8887 59.9004 44.2089C60.7685 43.5154 61.2094 42.5147 61.2094 41.2361V30.3648H68.068V44.7611H70.7455V27.7993H58.5307V40.6464Z" fill="black"/>
<path d="M20.4745 30.3648H26.6441V44.7611H29.3216V30.3648H35.5144V27.7993H20.4745V30.3648Z" fill="black"/>
<path d="M92.4029 37.4446H100.528V34.8797H92.4029V30.3648H101.705V27.7993H89.726V44.7611H101.94V41.9595H92.4029V37.4446Z" fill="black"/>
<path d="M73.4789 30.3648H79.6485V44.7611H82.3254V30.3648H88.5188V27.7993H73.4789V30.3648Z" fill="black"/>
<path d="M111.721 35.0735H113.535L119 27.7993H115.638L110.946 34.043L106.255 27.7993H102.893L109.265 36.2811L102.893 44.7611H106.257L110.946 38.5192L115.635 44.7611H119L112.628 36.2811L111.721 35.0735Z" fill="black"/>
<path d="M119 77.9964V48.1309H115.636V74.6283H3.36413V3.37173H115.636V24.4352H119V0H0.061285H0V78" fill="black"/>
</g>
<defs>
<clipPath id="clip0_423_2050">
<rect width="119" height="78" fill="white"/>
</clipPath>
</defs>
</svg>
